<svg height="auto" viewBox="0 0 2000 1400" xmlns="http://www.w3.org/2000/svg">
    <path
        d="M0 1399.42c3.6-1.414 10.8-3.672 18-7.075 7.2-3.403 10.8-4.388 18-9.939 7.2-5.55 10.8-12 18-17.815 7.2-5.816 10.8-9.06 18-11.262 7.2-2.202 10.8 3.661 18 .25 7.2-3.41 10.8-9.476 18-17.303 7.2-7.827 10.8-13.85 18-21.833 7.2-7.983 10.8-23.246 18-18.082 7.2 5.165 10.8 39.883 18 43.905 7.2 4.021 10.8-9.365 18-23.798 7.2-14.433 10.8-35.037 18-48.366 7.2-13.328 10.8-17 18-18.278 7.2-1.278 10.8 7.054 18 11.887 7.2 4.834 10.8 5.834 18 12.282 7.2 6.448 10.8 16.244 18 19.96 7.2 3.716 10.8 6.486 18-1.381 7.2-7.868 10.8-28.049 18-37.957 7.2-9.908 10.8-5.587 18-11.583 7.2-5.996 10.8-23.103 18-18.396 7.2 4.706 10.8 57.214 18 41.928 7.2-15.286 10.8-97.162 18-118.357 7.2-21.195 10.8 12.977 18 12.383 7.2-.593 10.8-28.851 18-15.352 7.2 13.5 10.8 70.899 18 82.85 7.2 11.952 10.8-15.704 18-23.093 7.2-7.39 10.8 7.414 18-13.855 7.2-21.269 10.8-82.016 18-92.49 7.2-10.475 10.8 20.424 18 40.117 7.2 19.694 10.8 56.923 18 58.35 7.2 1.426 10.8-50.35 18-51.218 7.2-.868 10.8 44.76 18 46.876 7.2 2.116 10.8-29.052 18-36.296 7.2-7.244 10.8 35.507 18 .077 7.2-35.43 10.8-149.146 18-177.228 7.2-28.082 10.8 45.848 18 36.817 7.2-9.03 10.8-80.164 18-81.969 7.2-1.805 10.8 50.93 18 72.945 7.2 22.017 10.8 17.183 18 37.137 7.2 19.955 10.8 44.28 18 62.636 7.2 18.358 10.8 30.655 18 29.15 7.2-1.504 10.8 4.868 18-36.672 7.2-41.54 10.8-140.189 18-171.03 7.2-30.84 10.8-18.237 18 16.827 7.2 35.065 10.8 169.312 18 158.495 7.2-10.817 10.8-155.63 18-212.578 7.2-56.949 10.8-77.676 18-72.166 7.2 5.51 10.8 52.894 18 99.716 7.2 46.822 10.8 122.094 18 134.395 7.2 12.302 10.8-13.384 18-72.887 7.2-59.503 10.8-216.273 18-224.63 7.2-8.356 10.8 141.99 18 182.847 7.2 40.857 10.8 42.656 18 21.435 7.2-21.221 10.8-119.464 18-127.541 7.2-8.077 10.8 97.354 18 87.155 7.2-10.2 10.8-97.626 18-138.15 7.2-40.525 10.8-64.318 18-64.472 7.2-.154 10.8 10.358 18 63.702 7.2 53.344 10.8 214.704 18 203.018 7.2-11.687 10.8-263.073 18-261.45 7.2 1.622 10.8 248.427 18 269.561 7.2 21.135 10.8-84.456 18-163.889 7.2-79.432 10.8-244.527 18-233.273 7.2 11.253 10.8 278.47 18 289.54 7.2 11.07 10.8-252.125 18-234.187 7.2 17.939 10.8 269.269 18 323.88 7.2 54.612 10.8-39.95 18-50.822 7.2-10.873 10.8 55.68 18-3.542 7.2-59.223 10.8-247.838 18-292.572 7.2-44.733 10.8 36.522 18 68.904 7.2 32.383 10.8 132.248 18 93.008 7.2-39.239 10.8-258.6 18-289.204 7.2-30.605 10.8 120.538 18 136.183 7.2 15.644 10.8-86.88 18-57.96 7.2 28.92 10.8 170.848 18 202.559 7.2 31.71 10.8-66.607 18-44.006 7.2 22.6 10.8 161.894 18 157.009 7.2-4.885 10.8-120.761 18-181.435 7.2-60.674 10.8-63.816 18-121.934 7.2-58.119 10.8-139.119 18-168.658 7.2-29.539 10.8-31.413 18 20.962 7.2 52.376 10.8 176.317 18 240.915 7.2 64.598 10.8 69.296 18 82.073 7.2 12.778 10.8-5.803 18-18.186 7.2-12.382 10.8 46.616 18-43.728 7.2-90.344 10.8-347.868 18-407.991 7.2-60.124 10.8 2.935 18 107.372 7.2 104.438 10.8 370.388 18 414.817 7.2 44.428 10.8-152.392 18-192.674 7.2-40.281 10.8-34.962 18-8.735 7.2 26.226 10.8 130.896 18 139.869 7.2 8.972 10.8-58.133 18-95.007 7.2-36.875 10.8-12.895 18-89.367 7.2-76.472 10.8-260.854 18-292.995 7.2-32.141 10.8 145.775 18 132.289 7.2-13.487 10.8-169.747 18-199.722 7.2-29.974 10.8 41.668 18 49.85 7.2 8.183 10.8-57.207 18-8.936 7.2 48.271 10.8 274.134 18 250.292 7.2-23.842 10.8-357 18-369.502 7.2-12.502 10.8 245.848 18 306.991 7.2 61.144 10.8-33.531 18-1.274 7.2 32.257 10.8 109.98 18 162.56 7.2 52.578 10.8 148.215 18 100.333 7.2-47.882 10.8-277.877 18-339.743 7.2-61.867 10.8 23.41 18 30.411 7.2 7 10.8 28.407 18 4.59 7.2-23.816 10.8-105.776 18-123.673 7.2-17.898 10.8 35.941 18 34.187 7.2-1.755 10.8-10.994 18-42.96 7.2-31.965 14.4-93.495 18-116.868L2000 1400H0Z"
        fill="#444cf71a" />
    <path
        d="M0 1399.42c3.6-1.414 10.8-3.672 18-7.075 7.2-3.403 10.8-4.388 18-9.939 7.2-5.55 10.8-12 18-17.815 7.2-5.816 10.8-9.06 18-11.262 7.2-2.202 10.8 3.661 18 .25 7.2-3.41 10.8-9.476 18-17.303 7.2-7.827 10.8-13.85 18-21.833 7.2-7.983 10.8-23.246 18-18.082 7.2 5.165 10.8 39.883 18 43.905 7.2 4.021 10.8-9.365 18-23.798 7.2-14.433 10.8-35.037 18-48.366 7.2-13.328 10.8-17 18-18.278 7.2-1.278 10.8 7.054 18 11.887 7.2 4.834 10.8 5.834 18 12.282 7.2 6.448 10.8 16.244 18 19.96 7.2 3.716 10.8 6.486 18-1.381 7.2-7.868 10.8-28.049 18-37.957 7.2-9.908 10.8-5.587 18-11.583 7.2-5.996 10.8-23.103 18-18.396 7.2 4.706 10.8 57.214 18 41.928 7.2-15.286 10.8-97.162 18-118.357 7.2-21.195 10.8 12.977 18 12.383 7.2-.593 10.8-28.851 18-15.352 7.2 13.5 10.8 70.899 18 82.85 7.2 11.952 10.8-15.704 18-23.093 7.2-7.39 10.8 7.414 18-13.855 7.2-21.269 10.8-82.016 18-92.49 7.2-10.475 10.8 20.424 18 40.117 7.2 19.694 10.8 56.923 18 58.35 7.2 1.426 10.8-50.35 18-51.218 7.2-.868 10.8 44.76 18 46.876 7.2 2.116 10.8-29.052 18-36.296 7.2-7.244 10.8 35.507 18 .077 7.2-35.43 10.8-149.146 18-177.228 7.2-28.082 10.8 45.848 18 36.817 7.2-9.03 10.8-80.164 18-81.969 7.2-1.805 10.8 50.93 18 72.945 7.2 22.017 10.8 17.183 18 37.137 7.2 19.955 10.8 44.28 18 62.636 7.2 18.358 10.8 30.655 18 29.15 7.2-1.504 10.8 4.868 18-36.672 7.2-41.54 10.8-140.189 18-171.03 7.2-30.84 10.8-18.237 18 16.827 7.2 35.065 10.8 169.312 18 158.495 7.2-10.817 10.8-155.63 18-212.578 7.2-56.949 10.8-77.676 18-72.166 7.2 5.51 10.8 52.894 18 99.716 7.2 46.822 10.8 122.094 18 134.395 7.2 12.302 10.8-13.384 18-72.887 7.2-59.503 10.8-216.273 18-224.63 7.2-8.356 10.8 141.99 18 182.847 7.2 40.857 10.8 42.656 18 21.435 7.2-21.221 10.8-119.464 18-127.541 7.2-8.077 10.8 97.354 18 87.155 7.2-10.2 10.8-97.626 18-138.15 7.2-40.525 10.8-64.318 18-64.472 7.2-.154 10.8 10.358 18 63.702 7.2 53.344 10.8 214.704 18 203.018 7.2-11.687 10.8-263.073 18-261.45 7.2 1.622 10.8 248.427 18 269.561 7.2 21.135 10.8-84.456 18-163.889 7.2-79.432 10.8-244.527 18-233.273 7.2 11.253 10.8 278.47 18 289.54 7.2 11.07 10.8-252.125 18-234.187 7.2 17.939 10.8 269.269 18 323.88 7.2 54.612 10.8-39.95 18-50.822 7.2-10.873 10.8 55.68 18-3.542 7.2-59.223 10.8-247.838 18-292.572 7.2-44.733 10.8 36.522 18 68.904 7.2 32.383 10.8 132.248 18 93.008 7.2-39.239 10.8-258.6 18-289.204 7.2-30.605 10.8 120.538 18 136.183 7.2 15.644 10.8-86.88 18-57.96 7.2 28.92 10.8 170.848 18 202.559 7.2 31.71 10.8-66.607 18-44.006 7.2 22.6 10.8 161.894 18 157.009 7.2-4.885 10.8-120.761 18-181.435 7.2-60.674 10.8-63.816 18-121.934 7.2-58.119 10.8-139.119 18-168.658 7.2-29.539 10.8-31.413 18 20.962 7.2 52.376 10.8 176.317 18 240.915 7.2 64.598 10.8 69.296 18 82.073 7.2 12.778 10.8-5.803 18-18.186 7.2-12.382 10.8 46.616 18-43.728 7.2-90.344 10.8-347.868 18-407.991 7.2-60.124 10.8 2.935 18 107.372 7.2 104.438 10.8 370.388 18 414.817 7.2 44.428 10.8-152.392 18-192.674 7.2-40.281 10.8-34.962 18-8.735 7.2 26.226 10.8 130.896 18 139.869 7.2 8.972 10.8-58.133 18-95.007 7.2-36.875 10.8-12.895 18-89.367 7.2-76.472 10.8-260.854 18-292.995 7.2-32.141 10.8 145.775 18 132.289 7.2-13.487 10.8-169.747 18-199.722 7.2-29.974 10.8 41.668 18 49.85 7.2 8.183 10.8-57.207 18-8.936 7.2 48.271 10.8 274.134 18 250.292 7.2-23.842 10.8-357 18-369.502 7.2-12.502 10.8 245.848 18 306.991 7.2 61.144 10.8-33.531 18-1.274 7.2 32.257 10.8 109.98 18 162.56 7.2 52.578 10.8 148.215 18 100.333 7.2-47.882 10.8-277.877 18-339.743 7.2-61.867 10.8 23.41 18 30.411 7.2 7 10.8 28.407 18 4.59 7.2-23.816 10.8-105.776 18-123.673 7.2-17.898 10.8 35.941 18 34.187 7.2-1.755 10.8-10.994 18-42.96 7.2-31.965 14.4-93.495 18-116.868"
        fill="none" stroke="#444cf7" stroke-width="4" />
</svg>